<?xml version="1.0" standalone="no"?>
<!DOCTYPE svg PUBLIC "-//W3C//DTD SVG 20010904//EN"
 "http://www.w3.org/TR/2001/REC-SVG-20010904/DTD/svg10.dtd">
<svg version="1.0" xmlns="http://www.w3.org/2000/svg"
 width="945.000000pt" height="232.000000pt" viewBox="0 0 945.000000 232.000000"
 preserveAspectRatio="xMidYMid meet">

<g transform="translate(0.000000,232.000000) scale(0.100000,-0.100000)"
fill="#000000" stroke="none">
<path d="M0 1160 l0 -1160 4725 0 4725 0 0 1160 0 1160 -4725 0 -4725 0 0
-1160z m3981 600 c12 -7 114 -198 257 -483 l237 -472 5 475 5 475 29 3 c16 2
32 -2 37 -10 13 -21 11 -962 -2 -991 -16 -36 -54 -50 -96 -36 -32 10 -44 30
-271 482 l-237 472 -5 -469 c-5 -432 -6 -470 -22 -480 -13 -8 -23 -8 -35 0
-17 10 -18 47 -21 503 l-2 492 24 24 c26 26 64 32 97 15z m-2817 -6 c14 -5 16
-61 16 -520 l0 -515 -122 3 -123 3 -5 377 -5 377 -176 -377 -177 -377 -121 -3
c-114 -2 -121 -2 -121 17 0 27 439 993 458 1009 17 13 344 18 376 6z m820 -10
c12 -12 16 -36 16 -100 0 -125 1 -124 -130 -124 l-110 0 -2 -397 -3 -398 -111
-3 c-109 -3 -112 -2 -118 20 -3 13 -6 193 -6 400 l0 377 -112 3 -113 3 -3 109
c-2 81 1 112 10 118 7 4 160 8 340 8 284 0 329 -2 342 -16z m340 10 c14 -5 16
-61 16 -520 l0 -515 -112 3 -113 3 -3 504 c-1 364 1 508 9 517 12 15 171 20
203 8z m406 -4 c13 -8 16 -65 20 -380 l5 -371 164 350 c90 192 172 364 182
380 l19 31 229 0 c195 0 232 -2 245 -16 14 -13 16 -59 16 -350 0 -212 -4 -342
-10 -355 -10 -17 -22 -19 -109 -19 -70 0 -102 4 -110 13 -7 9 -12 127 -13 367
l-3 353 -234 -517 -235 -516 -197 0 c-170 0 -198 2 -203 16 -3 9 -6 237 -6
508 0 369 3 495 12 504 15 15 206 16 228 2z m5438 -282 c1 -159 5 -288 8 -288
3 0 76 66 162 146 86 81 167 151 179 157 26 12 53 -5 53 -33 0 -14 -203 -210
-316 -305 l-24 -20 170 -180 c167 -177 192 -214 155 -229 -31 -12 -65 16 -215
178 -85 91 -158 166 -162 166 -5 0 -8 -74 -8 -164 0 -140 -2 -165 -16 -170
-24 -9 -31 -8 -48 10 -14 14 -16 74 -16 508 0 527 -1 520 50 514 l25 -3 3
-287z m-2560 170 c7 -7 12 -41 12 -85 l0 -72 93 -3 c89 -3 92 -4 95 -27 6 -38
-22 -51 -110 -51 l-78 0 0 -285 c0 -337 -4 -325 104 -325 67 0 91 -13 84 -47
-8 -41 -174 -38 -221 5 -43 38 -47 66 -47 367 l0 285 -63 0 c-73 0 -101 15
-95 51 3 23 7 24 81 27 l77 3 0 72 c0 74 9 97 40 97 9 0 21 -5 28 -12z m-458
-186 c96 -48 145 -155 138 -302 l-3 -65 -240 -5 -240 -5 2 -60 c5 -113 53
-187 139 -215 52 -18 185 -7 256 20 64 24 78 21 78 -15 0 -31 -29 -50 -110
-71 -197 -51 -365 10 -421 154 -20 50 -23 76 -23 207 0 133 2 156 23 208 25
63 56 105 104 139 76 54 201 59 297 10z m2205 9 c52 -23 103 -75 127 -127 41
-93 48 -314 13 -432 -22 -72 -90 -145 -158 -168 -120 -41 -264 -11 -332 69
-51 60 -67 115 -73 256 -8 204 23 308 110 374 74 57 219 69 313 28z m613 17
c17 -17 15 -46 -5 -56 -10 -5 -58 -12 -107 -16 -48 -3 -92 -9 -97 -12 -5 -3
-9 -151 -9 -330 l0 -324 -25 -12 c-19 -8 -28 -8 -40 2 -13 11 -15 60 -15 361
0 404 -14 361 128 383 112 18 155 19 170 4z m1110 -16 c49 -15 57 -21 60 -45
4 -37 -12 -41 -89 -22 -84 19 -201 20 -239 0 -20 -10 -33 -28 -41 -53 -21 -72
11 -106 195 -208 49 -27 112 -70 140 -95 l50 -46 4 -74 c3 -65 1 -78 -20 -109
-61 -90 -177 -116 -353 -78 -80 17 -107 34 -103 66 4 32 14 32 103 8 32 -9 90
-16 127 -16 117 0 168 36 168 119 0 38 -5 49 -38 80 -21 20 -85 61 -142 91
-175 94 -231 162 -214 258 20 109 104 157 262 146 39 -3 98 -13 130 -22z
m-3100 5 c6 -7 45 -159 87 -337 41 -178 77 -326 80 -328 6 -7 5 -12 90 293 42
148 83 278 92 287 21 23 68 23 91 0 15 -15 128 -389 168 -554 3 -16 9 -28 13
-28 3 0 40 143 80 318 40 174 77 327 82 340 12 31 62 28 67 -4 3 -24 -144
-656 -162 -694 -26 -57 -101 -59 -129 -3 -8 15 -47 145 -86 288 -40 143 -74
261 -76 263 -4 5 -23 -60 -100 -338 -31 -113 -63 -215 -70 -226 -30 -47 -103
-38 -125 15 -7 17 -47 179 -90 359 -54 229 -75 332 -68 345 10 20 41 23 56 4z
m-2378 -536 c12 -23 13 -180 2 -199 -6 -9 -37 -12 -118 -10 l-109 3 -3 99 c-2
64 1 103 9 112 8 10 38 14 110 14 87 0 99 -2 109 -19z"/>
<path d="M4905 1387 c-48 -27 -91 -106 -100 -184 l-7 -53 206 0 206 0 0 45 c0
24 -7 66 -16 92 -30 89 -81 123 -186 123 -47 0 -73 -6 -103 -23z"/>
<path d="M7125 1396 c-80 -36 -107 -101 -113 -272 -8 -244 49 -333 212 -334
81 0 138 28 171 85 58 97 57 353 0 451 -35 59 -86 84 -175 83 -36 0 -78 -6
-95 -13z"/>
</g>
</svg>
